<?xml version="1.0" encoding="utf-8"?>
<!-- Generator: Adobe Illustrator 19.0.0, SVG Export Plug-In . SVG Version: 6.00 Build 0)  -->
<svg version="1.1" id="Layer_1" xmlns="http://www.w3.org/2000/svg" xmlns:xlink="http://www.w3.org/1999/xlink" x="0px" y="0px"
	 viewBox="-23 25 152 152" style="enable-background:new -23 25 152 152;" xml:space="preserve">
<style type="text/css">
	.st0{fill:none;stroke:#616162;stroke-width:2;stroke-miterlimit:10;}
	.st1{opacity:0.5;fill:#F1F2F2;stroke:#FFFFFF;stroke-width:2;stroke-miterlimit:10;enable-background:new    ;}
	.st2{opacity:0.8;}
	.st3{fill:#FFFFFF;stroke:#000000;stroke-width:2;stroke-miterlimit:10;}
	.st4{fill:#FFFFFF;stroke:#000000;stroke-miterlimit:10;}
</style>
<circle id="XMLID_1_" class="st0" cx="53" cy="101" r="75"/>
<circle id="XMLID_2_" class="st1" cx="53" cy="101" r="73"/>
<g id="XMLID_4_" class="st2">
	<g id="XMLID_51_">
		<line id="XMLID_56_" class="st3" x1="19.1" y1="101.1" x2="86.9" y2="100.9"/>
		<g id="XMLID_54_">
			<path id="XMLID_55_" class="st4" d="M3,101.3c7.6,2.8,17.1,7.5,22.8,12.5l-4.7-12.7l4.5-12.7C19.9,93.5,10.6,98.5,3,101.3z"/>
		</g>
		<g id="XMLID_52_">
			<path id="XMLID_53_" class="st4" d="M103,100.7c-7.6,2.8-16.9,7.7-22.7,12.8l4.5-12.7l-4.7-12.7C85.9,93.3,95.4,97.9,103,100.7z"
				/>
		</g>
	</g>
</g>
<g id="XMLID_5_" class="st2">
	<g id="XMLID_29_">
		<line id="XMLID_49_" class="st3" x1="53.1" y1="134.9" x2="52.9" y2="67.1"/>
		<g id="XMLID_47_">
			<path id="XMLID_48_" class="st4" d="M53.3,151c2.8-7.6,7.5-17.1,12.5-22.8l-12.7,4.7l-12.7-4.5C45.5,134.1,50.5,143.4,53.3,151z"
				/>
		</g>
		<g id="XMLID_30_">
			<path id="XMLID_46_" class="st4" d="M52.7,51c2.8,7.6,7.7,16.9,12.8,22.7l-12.7-4.5l-12.7,4.7C45.3,68.1,49.9,58.6,52.7,51z"/>
		</g>
	</g>
</g>
<circle id="XMLID_3_" class="st4" cx="53" cy="101" r="10"/>
</svg>
